<?xml version="1.0" standalone="no"?>
<!DOCTYPE svg PUBLIC "-//W3C//DTD SVG 20010904//EN"
 "http://www.w3.org/TR/2001/REC-SVG-20010904/DTD/svg10.dtd">
<svg version="1.0" xmlns="http://www.w3.org/2000/svg"
 width="882.000000pt" height="854.000000pt" viewBox="0 0 882.000000 854.000000"
 preserveAspectRatio="xMidYMid meet">

<g transform="translate(0.000000,854.000000) scale(0.100000,-0.100000)"
fill="#000000" stroke="none">
<path d="M5002 7813 l3 -418 818 -3 817 -2 0 -185 0 -185 -975 0 -975 0 -2
423 -3 422 -1668 0 -1668 0 -2 -280 -2 -280 -578 -3 -577 -2 0 -415 0 -415
692 -2 693 -3 3 -862 2 -863 -110 0 -110 0 2 -467 3 -468 260 0 260 0 3 463 2
463 108 -3 107 -3 0 -470 0 -470 -262 -3 -263 -2 0 -1126 0 -1126 210 202 210
203 0 113 0 114 116 0 116 0 320 312 c176 172 363 353 414 401 l94 89 0 1749
0 1749 1335 0 1335 0 0 -295 0 -295 -187 -2 -188 -3 -3 -334 -2 -334 107 104
c60 57 677 657 1372 1334 l1264 1230 -566 3 -567 2 0 180 0 180 -980 0 -980 0
2 -417z"/>
<path d="M17 7913 c-4 -3 -7 -129 -7 -280 l0 -273 575 0 575 0 -2 278 -3 277
-566 3 c-311 1 -569 -1 -572 -5z"/>
<path d="M6888 6583 l-1376 -1338 -1 -97 -1 -98 485 0 485 0 2 403 3 402 193
3 192 2 0 -445 0 -445 -487 0 -488 0 2 -277 c2 -153 4 -843 6 -1533 2 -914 6
-1270 15 -1310 6 -30 19 -100 28 -155 9 -55 20 -113 25 -130 4 -16 15 -59 24
-95 44 -177 139 -389 246 -550 84 -126 218 -259 346 -343 56 -37 105 -67 108
-67 4 0 37 -14 74 -31 36 -17 77 -35 91 -41 14 -6 33 -14 42 -19 10 -5 20 -9
23 -9 3 0 5 85 5 189 l0 188 61 7 c34 3 389 6 788 6 l726 0 -3 455 -2 455
-399 0 c-416 0 -423 1 -516 45 -96 45 -179 179 -206 335 -8 43 -13 273 -16
671 l-4 606 23 7 c13 3 103 6 201 6 l177 0 0 465 0 465 -200 0 -200 0 2 1103
3 1102 695 3 695 2 -2 698 -3 697 -243 3 -243 2 -1376 -1337z m-100 -2740 l-3
-478 -200 0 -200 0 -3 465 c-1 256 0 471 3 478 3 9 54 12 205 12 l200 0 -2
-477z"/>
<path d="M8370 5385 c-25 -7 -79 -23 -120 -35 -41 -11 -91 -34 -110 -49 -49
-39 -96 -120 -130 -229 -34 -104 -37 -156 -15 -228 9 -27 22 -89 31 -138 25
-154 73 -228 179 -278 159 -75 320 3 420 205 68 138 68 282 0 412 l-32 62 28
31 c80 89 26 224 -101 251 -64 14 -94 13 -150 -4z"/>
<path d="M2813 2616 l-402 -391 92 -5 92 -5 3 -422 2 -423 525 0 525 0 0 485
0 485 -215 0 -215 0 -2 333 -3 334 -402 -391z"/>
<path d="M1952 1775 c-106 -107 -196 -195 -202 -195 -7 0 -10 -201 -10 -600
l0 -600 740 0 740 0 0 425 0 425 -530 0 -530 0 0 370 c0 204 -4 370 -9 370 -4
0 -94 -88 -199 -195z"/>
<path d="M7212 413 l3 -187 30 -9 c83 -25 215 -51 350 -69 44 -5 324 -12 628
-14 l547 -5 0 236 0 235 -780 0 -780 0 2 -187z"/>
</g>
</svg>
